# xmcd
#
# Track frame offsets:
#	150
#	2853
#	16076
#	25906
#	38881
#	48382
#	64544
#	76530
#	91931
#	103709
#	119198
#	132219
#	146338
#
# Disc length: 2174 seconds
# Revision: 0
# Processed by: cddbd v1.5.2PL0 Copyright (c) Steve Scherf et al.
# Submitted via: dBpowerAMP V12.0
#
DISCID=9d087c0d
DTITLE=Bean Creek - Home Again
DYEAR=2019
DGENRE=Bluegrass
TTITLE0=Cotton Eyed Joe
TTITLE1=You're Running Wild
TTITLE2=Nobody's Business
TTITLE3=Home Again
TTITLE4=Have You Come to Say Goodbye
TTITLE5=Home in the Mountains
TTITLE6=Hey Bartender
TTITLE7=The Boys From North Carolina
TTITLE8=Kentucky Is Just a Word to Me
TTITLE9=I'll Fly Away
TTITLE10=Shenandoah Valley Breakdown
TTITLE11=We Must Journey On
TTITLE12=Hawaii
EXTD=
EXTT0=
EXTT1=
EXTT2=
EXTT3=
EXTT4=
EXTT5=
EXTT6=
EXTT7=
EXTT8=
EXTT9=
EXTT10=
EXTT11=
EXTT12=
PLAYORDER=
